# xmcd
#
# Track frame offsets:
#	150
#	20862
#	41844
#	65481
#	82378
#	90457
#	101192
#	118271
#	133763
#	153325
#	167982
#	188327
#	207369
#	223781
#	241065
#	265777
#	287947
#	301546
#	322498
#
# Disc length: 4495 seconds
#
# Revision: 0
# Processed by: cddbd v1.4PL0 Copyright (c) Steve Scherf et al.
# Submitted via: audiograbber 1.81.02
#
DISCID=23118d13
DTITLE=Various Artist - The Blues - The Soul of a Man
DYEAR=2003
DGENRE=Blues
TTITLE0=Cassandra Wilson - Vietnam Blues
TTITLE1=Eagle-Eye Cherry, Vernon Reid, James Blood Ulmer - Down in Mississippi
TTITLE2=Lucinda Williams - Hard Times Killing Floor Blues
TTITLE3=Lou Reed - Look Down The Road
TTITLE4=Nick Cave and The Bad Seeds - I Feel So Good
TTITLE5=Cassandra Wilson - Slow Down
TTITLE6=T Bone Burnett - Don't Dog Your Woman
TTITLE7=Los Lobos - Voodo Music
TTITLE8=John Mayall and The Bluesbreakers - The Death of J.B. Lenoir
TTITLE9=J.B. Lenoir - Alabama
TTITLE10=Shemekia Copeland - God's Word
TTITLE11=Alvin Youngblood Hart - Illinois Blues
TTITLE12=Beck - I'm So Glad
TTITLE13=The Jon Spencer Blues Explosion - Special Rider Blues
TTITLE14=Marc Ribot - Dark Was The Night, Cold Was The Ground
TTITLE15=Bonnie Raitt - Devil Got My Woman
TTITLE16=Skip James - Crow Jane
TTITLE17=Garland Jeffreys - Washington D.C. Hospital Center Blues
TTITLE18=Blind Willie Johnson - Soul of a Man
EXTD=Martin Scorsese Presents: The Blues
EXTT0=J.B. Lenoir
EXTT1=J.B. Lenoir
EXTT2=Nehemiah (Skip) James
EXTT3=Nehemiah (Skip) James
EXTT4=J.B. Lenoir
EXTT5=J.B. Lenoir
EXTT6=J.B. Lenoir
EXTT7=J.B. Lenoir/Willie Dixon
EXTT8=John Mayall
EXTT9=J.B. Lenoir
EXTT10=J.B. Lenoir
EXTT11=Nehemiah (Skip) James
EXTT12=Nehemiah (Skip) James
EXTT13=Nehemiah (Skip) James
EXTT14=Willie Johnson
EXTT15=Nehemiah (Skip) James
EXTT16=
EXTT17=Nehemiah (Skip) James
EXTT18=
PLAYORDER=
